<?xml version="1.0" encoding="UTF-8"?>
<svg id="logo-arenda-chistoty" xmlns="http://www.w3.org/2000/svg" xmlns:xlink="http://www.w3.org/1999/xlink" viewBox="0 0 960 1100">
  <defs>
    <style>
      .dog-outline {
        fill: #00BFFF;
        stroke: #2E7D32;
        stroke-width: 10px;
        stroke-linecap: round;
        stroke-linejoin: round;
      }
      .dog-ear {
        fill: #ffffff;
        stroke: #2E7D32;
        stroke-width: 10px;
        stroke-linecap: round;
        stroke-linejoin: round;
      }
      .text-brand {
        fill: #2E7D32;
        font-family: 'Arial', 'Helvetica', sans-serif;
        font-weight: 900;
        font-size: 64px;
        text-anchor: middle;
      }
      .text-domain {
        fill: #00BFFF;
        font-family: 'Arial', 'Helvetica', sans-serif;
        font-weight: 600;
        font-size: 28px;
        text-anchor: middle;
        letter-spacing: 2px;
      }
    </style>
    <linearGradient id="animated_gradient" x1="0%" y1="0%" x2="100%" y2="100%" gradientUnits="userSpaceOnUse">
      <stop offset="0%" stop-color="#00BFFF">
        <animate attributeName="stop-color" values="#00BFFF;#2E7D32;#00BFFF" dur="6s" repeatCount="indefinite"/>
      </stop>
      <stop offset="50%" stop-color="#2E7D32">
        <animate attributeName="stop-color" values="#2E7D32;#00BFFF;#2E7D32" dur="6s" repeatCount="indefinite"/>
      </stop>
      <stop offset="100%" stop-color="#00BFFF">
        <animate attributeName="stop-color" values="#00BFFF;#2E7D32;#00BFFF" dur="6s" repeatCount="indefinite"/>
      </stop>
    </linearGradient>
  </defs>

  <!-- Собака (центр) -->
  <g transform="translate(480, 480) scale(0.9) translate(-480, -480)">
    <!-- Уши -->
    <path class="dog-ear" d="M194.68,355.85l-39.26,10.79c-15.37,4.22-25.55,16.06-25.09,29.21,1.71,49.79,7.38,166.77,23.08,173.21,19.97,8.19,48.94,16.58,48.94,16.58l-7.66-229.78Z"/>
    <path class="dog-ear" d="M765.33,355.85l39.26,10.79c15.37,4.22,25.55,16.06,25.09,29.21-1.71,49.79-7.38,166.77-23.08,173.21-19.97,8.19-48.94,16.58-48.94,16.58l7.66-229.78Z"/>

    <!-- Голова и тело -->
    <ellipse cx="480" cy="451" rx="303" ry="309" fill="url(#animated_gradient)" stroke="#2E7D32" stroke-width="10"/>
    <path fill="url(#animated_gradient)" stroke="#2E7D32" stroke-width="10" d="M838.95,789.8c-2.27,2.8-4.59,5.57-6.94,8.31h0c-3.49,4.08-7.04,8.09-10.67,12.04-1.93,2.12-3.89,4.23-5.87,6.31-46.79,49.23-103.8,88.2-167.52,113.3l-.15.06c-.73.29-1.47.57-2.2.86-.06.02-.13.04-.2.07-14.7,5.69-29.76,10.64-45.13,14.81-38.38,10.44-78.69,15.99-120.27,15.99s-81.9-5.55-120.28-15.99c-15.32-4.16-30.32-9.1-44.97-14.76-.13-.05-.24-.1-.36-.14-.65-.24-1.3-.49-1.94-.75-.01-.01-.03-.01-.04-.01-.1-.04-.19-.08-.29-.12-61.77-24.33-117.26-61.69-163.22-108.81-.19-.19-.39-.39-.58-.59-2.32-2.38-4.6-4.79-6.87-7.22-.4-.43-.81-.87-1.21-1.3-6.61-7.14-13.01-14.5-19.18-22.05,0-.3.01-.61.03-.92,2.72-51.31,98.65-95.57,148.26-115.08h.01c17.38-6.85,29.08-10.65,29.08-10.65h363.13s11.7,3.8,29.08,10.65h.01c49.61,19.51,145.54,63.77,148.26,115.08.02.31.03.61.03.91Z"/>

    <!-- Морда -->
    <path fill="none" stroke="#2E7D32" stroke-width="8" d="M426,275c67-7.7,292,6.33,322,113.43,15.84,57.33-17.86,187.45-52.66,223.99-98,102.94-337.5,105.39-433.4-3.42-29.47-33.44-55.48-138.99-53.91-192.05,3.11-105.06,164.35-135.83,218-141.96Z"/>
    <path fill="none" stroke="#2E7D32" stroke-width="8" d="M530,274c-67-7.7-288.67,8.09-318.27,115.2-15.84,57.33,17.86,187.45,52.66,223.99,98,102.94,337.5,105.39,433.4-3.42,29.47-33.44,55.48-138.99,53.91-192.05-3.11-105.06-168.06-137.59-221.71-143.73Z"/>
  </g>

  <!-- Текст «Аренда чистоты» -->
  <text x="480" y="1000" class="text-brand">Аренда чистоты</text>
  
  <!-- Домен -->
  <text x="480" y="1050" class="text-domain">arenda-chistoty.ru</text>
</svg>